# xmcd CD database file
# Copyright (C) 1993-1998 Ti Kan
#
# Track frame offsets:
#	150
#	8408
#	25380
#	45380
#	55530
#	67403
#	76785
#	94705
#	112440
#	130667
#	140128
#	156738
#	179110
#	194045
#	210420
#	218400
#	234597
#	252783
#	273995
#
# Disc length: 3807 seconds
#
# Revision: 0
# Processed by: cddbd v1.4b41PL1 Copyright (c) Steve Scherf et al.
# Submitted via: CDmax 1.5.3
#
DISCID=170edd13
DTITLE=Richard Dobson - Salty Songs
DYEAR=1900
DGENRE=
TTITLE0=Coda 1
TTITLE1=I Believe
TTITLE2=Bordertown
TTITLE3=Talk Dirty To Me
TTITLE4=Hard By The Highway
TTITLE5=Coda 2
TTITLE6=Hit Me Like A Train
TTITLE7=Living and Dying For Love
TTITLE8=A Rock and A Soft Place
TTITLE9=Coda 3
TTITLE10=Hello Blue Bird
TTITLE11=Mankind
TTITLE12=Without You
TTITLE13=Between Husbands and Wives
TTITLE14=Coda 4
TTITLE15=Since You've Been Gone
TTITLE16=Molly and Dan
TTITLE17=Let It Go
TTITLE18=Coda 5
EXTD=
EXTT0=
EXTT1=
EXTT2=
EXTT3=
EXTT4=
EXTT5=
EXTT6=
EXTT7=
EXTT8=
EXTT9=
EXTT10=
EXTT11=
EXTT12=
EXTT13=
EXTT14=
EXTT15=
EXTT16=
EXTT17=
EXTT18=
PLAYORDER=
